<svg xmlns="http://www.w3.org/2000/svg" xmlns:xlink="http://www.w3.org/1999/xlink" viewBox="0 0 578.98 210.65"><defs><style>.cls-1{fill:none;}.cls-2{clip-path:url(#clip-path);}.cls-3{fill:#ffa788;}.cls-4{fill:#fff;}</style><clipPath id="clip-path" transform="translate(38.88)"><path class="cls-1" d="M189.15,69v116c0,14.15-13.09,25.74-29.08,25.74h-131c-16,0-29.08-11.59-29.08-25.74V69C0,54.78,13.08,43.2,29.08,43.2H57.92c.3.26.6.52.91.76L98.89,75.51,131.28,43.2h28.79C176.06,43.2,189.15,54.78,189.15,69Z"/></clipPath></defs><g id="圖層_2" data-name="圖層 2"><g id="圖層_1-2" data-name="圖層 1"><g class="cls-2"><path class="cls-3" d="M189.15,69v116c0,14.15-13.09,25.74-29.08,25.74h-131c-16,0-29.08-11.59-29.08-25.74V69C0,54.78,13.08,43.2,29.08,43.2H57.92c.3.26.6.52.91.76L98.89,75.51,131.28,43.2h28.79C176.06,43.2,189.15,54.78,189.15,69Z" transform="translate(38.88)"/><path class="cls-4" d="M138.14,149.33c-7-5.17-13.94-10.37-20.95-15.51-3.88-2.84-7.76-5.67-11.75-8.33-3.31-2.21-6.81-2.06-10.23-.11-1,.56-1.95,1.16-2.88,1.79q-6.39,4.37-12.77,8.74a6.25,6.25,0,0,1-6.81.43,3.84,3.84,0,0,1-1.53-5.9,13.25,13.25,0,0,1,2-2.2c5.47-5.12,10.93-10.26,16.46-15.31,8.15-7.45,12-7.72,21.4-1.77,4.89,3.1,9.77,6.23,14.74,9.2,3.72,2.23,7.69,4,12.14,4,1.75,0,3.51,0,5.27,0a39.49,39.49,0,0,1-.37-4.74c-7,.13-13.15-2.26-19-6.21-5.15-3.48-10.47-6.72-15.87-9.79-5.66-3.22-11.29-2.7-16.49,1.21-2.3,1.74-4.5,3.65-6.62,5.61-5.59,5.2-11.27,10.32-16.61,15.76-5,5-3.15,12.57,3.37,15a11.06,11.06,0,0,0,10.54-1.09q6-4.05,11.9-8.14c6-4.16,6.66-4.23,12.5.05q14.45,10.59,28.76,21.34a7.88,7.88,0,0,1,2.25,2.74c1.46,3-.07,5.73-3.33,6a12.86,12.86,0,0,1-4.78-.54c-5.39-1.76-5.36-1.83-7,3.58-1.2,4-2.83,4.79-6.79,3.16-1.56-.65-3-1.5-4.65-2-3-1-4.63.13-5,3.21a20.48,20.48,0,0,1-.55,3.33c-.74,2.6-2.41,3.58-5,2.84-1.55-.44-3-1.17-4.53-1.75-3.54-1.35-4.75-.86-6.3,2.57-2,4.3-4.43,5.25-8.38,2.61a89.45,89.45,0,0,1-8.46-7c-3.62-3.15-7-6.56-10.83-9.49-.28-.21-.57-.42-.88-.62a28.82,28.82,0,0,0-3.4,3.79,13.21,13.21,0,0,1,3,2c3,2.62,5.8,5.38,8.78,8a87.39,87.39,0,0,0,9,7.42c6.2,4.12,12.31,3.14,15.57-4,0-.12.18-.2.39-.41,10.78,3.85,13.46,2.75,16.67-7,3.16,1.35,6.3,3,9.91,2.12,3.9-.94,5.26-4.15,6.42-7.48a31.77,31.77,0,0,0,4.46.79,18.39,18.39,0,0,0,4.62-.38,8.34,8.34,0,0,0,6.56-7.87C143.18,154.82,141.37,151.72,138.14,149.33Z" transform="translate(38.88)"/><path class="cls-4" d="M85.41,187.62a14.83,14.83,0,0,1-8.14-2.78A64.82,64.82,0,0,1,70,178.93l-1.88-1.67c-1.59-1.39-3.15-2.83-4.66-4.23s-2.74-2.53-4.13-3.76c-.76-.67-.66-2-1.58-2.48l-2.32-1.33.63-.9a30.22,30.22,0,0,1,3.64-4.08l1.2-1.18,1.4.94c.35.23.68.47,1,.71,2.53,2,4.92,4.13,7.22,6.24,1.23,1.11,2.45,2.23,3.7,3.32.66.57,1.31,1.15,2,1.73a58.59,58.59,0,0,0,6.28,5.13c.94.62,2.23,1.31,3.11,1.07s1.5-1.18,2.25-2.82c2-4.44,4.35-5.39,8.91-3.64.55.21,1.08.43,1.62.66a23.39,23.39,0,0,0,2.75,1c1.47.42,2,.1,2.45-1.41a18.81,18.81,0,0,0,.48-3,5.93,5.93,0,0,1,2.46-4.68,5.85,5.85,0,0,1,5.22-.27,30.19,30.19,0,0,1,3,1.28c.59.28,1.18.56,1.78.81,1.93.79,2.58.66,2.77.57s.68-.5,1.26-2.41c.93-3.14,1.45-4.86,3.08-5.71s3.28-.31,6.31.68l.21.07a10.64,10.64,0,0,0,4,.45,2.09,2.09,0,0,0,1.76-.88,2.27,2.27,0,0,0-.14-2.1,5.81,5.81,0,0,0-1.64-2c-11.21-8.4-20.34-15.18-28.74-21.33-4.91-3.6-4.91-3.6-10.11,0q-5.94,4.09-11.91,8.15A13.15,13.15,0,0,1,70.9,143.2a11.32,11.32,0,0,1-7.31-8,11.13,11.13,0,0,1,3.17-10.33c4.32-4.39,8.9-8.63,13.34-12.73L83.44,109a86.67,86.67,0,0,1,6.79-5.75c6-4.48,12.44-5,18.75-1.36,5.9,3.35,11.13,6.58,16,9.88,6,4,11.82,6,17.82,5.86l2,.22.05,1.79a36,36,0,0,0,.34,4.48l.35,2.38h-2.4c-1.77,0-3.53,0-5.3,0-5.47-.09-10.13-2.52-13.16-4.33-4.31-2.59-8.61-5.32-12.77-8l-2-1.28c-8.64-5.47-11.46-5.24-18.9,1.56-4.54,4.15-9.11,8.43-13.53,12.57l-2.91,2.71a11.71,11.71,0,0,0-1.67,1.86,1.8,1.8,0,0,0,.76,2.9,4.22,4.22,0,0,0,4.7-.29q6.39-4.38,12.78-8.75c1-.66,2-1.29,3-1.88,4.28-2.43,8.57-2.37,12.4.19s7.67,5.34,11.83,8.38q6.7,4.92,13.38,9.9l7.58,5.62c4,2.94,5.9,6.75,5.7,11.33a10.42,10.42,0,0,1-8.19,9.8,20.85,20.85,0,0,1-5.14.43,17.38,17.38,0,0,1-3-.47c-1.08,2.72-3,6.06-7.26,7.1-3.46.84-6.49-.21-9.19-1.36-1.37,3.62-3,6.26-5.52,7.52-2.94,1.43-6.5.83-11.48-.85a11.76,11.76,0,0,1-7,6.05A10.18,10.18,0,0,1,85.41,187.62ZM60.84,165.21c.41.3.82.62,1.2,1,1.42,1.26,2.81,2.54,4.2,3.82s3,2.81,4.58,4.16l1.92,1.7a60.44,60.44,0,0,0,6.81,5.55c2.77,1.84,5.39,2.48,7.58,1.85s3.72-2.28,5-5a2.68,2.68,0,0,1,.7-.9l.11-.11.93-.94,1.24.45c5.35,1.91,8.21,2.36,9.85,1.56s2.7-2.82,4.16-7.22l.71-2.14,3.06,1.32c2.71,1.18,5.05,2.21,7.61,1.58s3.71-2.56,5-6.14L126,164l1.75.32,1.49.31a17,17,0,0,0,2.68.45,16.75,16.75,0,0,0,4.09-.34,6.32,6.32,0,0,0,4.94-5.94c.13-3.21-1.15-5.7-4-7.83q-3.81-2.81-7.59-5.63-6.68-5-13.37-9.87c-4.11-3-7.83-5.72-11.67-8.28-2.52-1.68-5.15-1.69-8.06,0-.94.54-1.86,1.11-2.74,1.71q-6.39,4.35-12.76,8.74a8.31,8.31,0,0,1-8.92.56,5.91,5.91,0,0,1-2.3-8.9,15,15,0,0,1,2.27-2.55l2.9-2.72c4.43-4.15,9-8.44,13.57-12.61,8.8-8,13.72-8.45,23.9-2l2,1.28c4.14,2.63,8.42,5.35,12.68,7.9s7.66,3.69,11.11,3.75l2.93,0c0-.2,0-.41,0-.62-6.16-.3-12.13-2.45-18.18-6.54-4.78-3.23-9.93-6.41-15.73-9.71-4.84-2.75-9.62-2.39-14.22,1.07a82.18,82.18,0,0,0-6.47,5.48l-3.35,3.1c-4.4,4.06-8.94,8.26-13.19,12.59a7,7,0,0,0-2.08,6.52,7.11,7.11,0,0,0,4.7,5.07,9,9,0,0,0,8.66-.86q6-4,11.89-8.13c6.83-4.71,8.36-4.7,14.89.09,8.42,6.16,17.56,12.94,28.78,21.35a10,10,0,0,1,2.87,3.48,6.27,6.27,0,0,1,0,6,6.13,6.13,0,0,1-5.05,2.94,14.8,14.8,0,0,1-5.57-.64l-.21-.07a25.4,25.4,0,0,0-3.08-.89,25.53,25.53,0,0,0-1.07,3.17c-.55,1.81-1.43,4-3.44,5s-4.34.25-6.12-.48c-.67-.28-1.33-.59-2-.9a27.4,27.4,0,0,0-2.56-1.1c-.92-.31-1.46-.28-1.65-.16s-.47.63-.58,1.64a21.11,21.11,0,0,1-.62,3.68c-1,3.71-3.87,5.3-7.55,4.26a28,28,0,0,1-3.23-1.2c-.49-.21-1-.42-1.48-.61-2.51-1-2.58-.93-3.68,1.49-1.3,2.85-2.89,4.52-4.88,5.08s-4.08,0-6.53-1.61a60.2,60.2,0,0,1-6.75-5.48l-1.91-1.69c-1.28-1.11-2.53-2.25-3.77-3.39-2.06-1.88-4.19-3.82-6.38-5.56C61.17,164.86,61,165,60.84,165.21Z" transform="translate(38.88)"/><path class="cls-4" d="M-2.69,170.1c-15,0-35.26-10.37-36.19-10.85l4.27-8.27c6.11,3.15,24.19,11,34.3,9.67C5.2,159.91,9.84,158,14.77,156c6.7-2.71,13.63-5.51,22.92-5.54h.07c14.4,0,27.22,11.78,27.8,12.29l-6.25,6.48c-.12-.1-10.7-9.47-21.54-9.47h-.05c-7.5,0-13.31,2.37-19.47,4.86C13,166.78,7.59,169,.93,169.87A28.24,28.24,0,0,1-2.69,170.1Z" transform="translate(38.88)"/><path class="cls-4" d="M143.05,126.52h-1.13l.05-8.87c19.36.11,42.82-2.83,46.95-7.34l6.86,6.27C187.15,126,152.53,126.52,143.05,126.52Z" transform="translate(38.88)"/></g><path class="cls-4" d="M141.88,43.19,100.14,84,48.51,44.15l-1.17-1Z" transform="translate(38.88)"/><path class="cls-3" d="M143.05,42l-1.17,1.15H47.34c-10.89-9.4-11.55-24.65-1.22-34.72C56.81-2,75.22-2.88,87.23,6.39l8.06,6.22,4.2-4.11C110.16-1.94,128.57-2.89,140.6,6.36S153.72,31.6,143.05,42Z" transform="translate(38.88)"/><path class="cls-3" d="M243.48,164.08l-13.28-1.87a2.27,2.27,0,0,1-2.17-2.55V93.32c0-1.51.72-2.16,2.17-2l13.28,1.87a2.3,2.3,0,0,1,2.17,2.56V119h24.11V93.32c0-1.51.72-2.16,2.16-2l13.19,1.87a2.3,2.3,0,0,1,2.17,2.56v66.34c0,1.51-.73,2.16-2.17,2l-13.19-1.87a2.27,2.27,0,0,1-2.16-2.55v-25.4H245.65v27.86C245.65,163.63,244.92,164.28,243.48,164.08Z" transform="translate(38.88)"/><path class="cls-3" d="M380.87,184.46l-13.19-1.77a2.35,2.35,0,0,1-2.16-2.66V110.64c0-1.5.72-2.16,2.16-2l10.43,1.77c1.45.19,2.43,1.31,3,3.34q8-6.78,16-6.79a19,19,0,0,1,15.94,7.78q5.91,7.68,5.91,21.06t-7,21.65q-7,8.26-16.53,8.27-7.19,0-13-5.81l.59,22.54C383,184,382.31,184.65,380.87,184.46ZM383,148.14a11.84,11.84,0,0,0,8.07,3.25,8.31,8.31,0,0,0,7.19-3.84q2.65-3.84,2.66-11.81,0-14.46-9.06-14.47-4.53,0-8.86,4.73Z" transform="translate(38.88)"/><path class="cls-3" d="M470.43,151l2.46,7.57a2.74,2.74,0,0,1-1.38,3.35q-4.83,3.84-16.63,3.84a27.22,27.22,0,0,1-19.78-7.88q-8-8-8-21.25t8-21.46A25.74,25.74,0,0,1,454.19,107q11.12,0,17.32,7.48t6.2,19.49l-.3,2.36c-.32,3.48-2.23,5.22-5.7,5.22h-24.8c-1.91,0-2.56,1.08-2,3.25q1.38,7.57,13.09,7.57a18.51,18.51,0,0,0,9.54-2.26C469.08,149.26,470,149.55,470.43,151ZM445,127.47c-.86,1.71-.33,2.56,1.57,2.56H460c1.91,0,2.69-1.24,2.37-3.74.32-3.93-2.46-5.9-8.37-5.9a9.54,9.54,0,0,0-6.59,2.46Z" transform="translate(38.88)"/><path class="cls-3" d="M504.28,164.08l-13.19-1.87a2.27,2.27,0,0,1-2.16-2.55v-49c0-1.5.72-2.16,2.16-2l10.34,1.77A2.81,2.81,0,0,1,504,113l.49,2.36q8.85-8.37,18.21-8.37,17.41,0,17.42,22.74v32.38c0,1.51-.73,2.16-2.17,2l-13.19-1.87a2.27,2.27,0,0,1-2.16-2.55V131.9q0-5.61-1.58-7.77a5.18,5.18,0,0,0-4.62-2.17,10.26,10.26,0,0,0-5.12,1.18L506.45,127v35.14C506.45,163.63,505.72,164.28,504.28,164.08Z" transform="translate(38.88)"/><path class="cls-3" d="M326.24,166.84l-24.52-30.22A15,15,0,1,1,325,117.71l2,2.45,2.46-2.83A15,15,0,0,1,352.14,137Z" transform="translate(38.88)"/><path class="cls-4" d="M341.35,135l-.5,2.15a.71.71,0,0,1-.79.65H339c-.57,0-.92.34-1,1a7.66,7.66,0,0,1-2,4.45.55.55,0,0,1-.91,0L333,141.2a.85.85,0,0,1-.06-1.15,5,5,0,0,0,1-3.36c0-1.75-.72-2.62-2.15-2.62a2,2,0,0,0-1.59.91,11.27,11.27,0,0,0-1.35,2.21c-.43.87-.9,1.73-1.39,2.59a7.25,7.25,0,0,1-2,2.18,4.87,4.87,0,0,1-2.94.91,6.31,6.31,0,0,1-4.15-1.35,4.74,4.74,0,0,1-1.92-2.85,1.11,1.11,0,0,0-1.12-.92h-1.94c-.45,0-.64-.21-.56-.65l.5-2.15a.72.72,0,0,1,.8-.64h1.14a1.3,1.3,0,0,0,1.24-.74l1.88-3.74c.34-.35.63-.35.89,0L321,132a1,1,0,0,1,0,1.15,2.84,2.84,0,0,0-.71,2.32c0,1.59.68,2.39,2,2.39a1.86,1.86,0,0,0,1.47-.91,12.89,12.89,0,0,0,1.24-2.21,28.89,28.89,0,0,1,1.33-2.59,6.56,6.56,0,0,1,2.06-2.21,5.15,5.15,0,0,1,3.06-.91,6.7,6.7,0,0,1,4.24,1.35,5,5,0,0,1,2.06,3,1.06,1.06,0,0,0,1.09.92h2C341.24,134.31,341.43,134.52,341.35,135Z" transform="translate(38.88)"/></g></g></svg>