<svg width="80" height="58" viewBox="0 0 80 58" fill="none" xmlns="http://www.w3.org/2000/svg">
<path d="M50.7499 0.333374C58.3528 0.333374 65.6443 3.3536 71.0203 8.72965C76.3964 14.1057 79.4166 21.3972 79.4166 29C79.4166 36.6029 76.3964 43.8944 71.0203 49.2704C65.6443 54.6465 58.3528 57.6667 50.7499 57.6667C43.147 57.6667 35.8556 54.6465 30.4795 49.2704C25.1035 43.8944 22.0833 36.6029 22.0833 29C22.0833 21.3972 25.1035 14.1057 30.4795 8.72965C35.8556 3.3536 43.147 0.333374 50.7499 0.333374ZM50.7499 7.50004C45.0478 7.50004 39.5792 9.76521 35.5471 13.7972C31.5151 17.8293 29.2499 23.2979 29.2499 29C29.2499 34.7022 31.5151 40.1708 35.5471 44.2028C39.5792 48.2349 45.0478 50.5 50.7499 50.5C56.4521 50.5 61.9207 48.2349 65.9527 44.2028C69.9847 40.1708 72.2499 34.7022 72.2499 29C72.2499 23.2979 69.9847 17.8293 65.9527 13.7972C61.9207 9.76521 56.4521 7.50004 50.7499 7.50004ZM47.1666 14.6667H52.5416V28.2117L60.8908 36.5609L57.0924 40.3592L47.1666 30.4334V14.6667ZM4.16659 50.5C3.21623 50.5 2.30479 50.1225 1.63279 49.4505C0.960781 48.7785 0.583252 47.8671 0.583252 46.9167C0.583252 45.9664 0.960781 45.0549 1.63279 44.3829C2.30479 43.7109 3.21623 43.3334 4.16659 43.3334H17.8908C19.0016 45.8775 20.4349 48.2784 22.0833 50.5H4.16659ZM7.74992 32.5834C6.79956 32.5834 5.88812 32.2058 5.21612 31.5338C4.54411 30.8618 4.16659 29.9504 4.16659 29C4.16659 28.0497 4.54411 27.1382 5.21612 26.4662C5.88812 25.7942 6.79956 25.4167 7.74992 25.4167H15.0958L14.9166 29L15.0958 32.5834H7.74992ZM11.3333 14.6667C10.3829 14.6667 9.47146 14.2892 8.79945 13.6172C8.12745 12.9452 7.74992 12.0337 7.74992 11.0834C7.74992 10.133 8.12745 9.22158 8.79945 8.54958C9.47146 7.87757 10.3829 7.50004 11.3333 7.50004H22.0833C20.4349 9.72171 19.0016 12.1225 17.8908 14.6667H11.3333Z" fill="#111111"/>
</svg>
