<svg xmlns="http://www.w3.org/2000/svg" xmlns:xlink="http://www.w3.org/1999/xlink" viewBox="0 0 300.3 269.58"><defs><style>.cls-1{fill:none;}.cls-2{clip-path:url(#clip-path);}.cls-3{fill:#ffa788;}.cls-4{fill:#fff;}</style><clipPath id="clip-path" transform="translate(49.75)"><path class="cls-1" d="M242.06,88.23V236.64c0,18.11-16.75,32.94-37.21,32.94H37.21C16.74,269.58,0,254.75,0,236.64V88.23C0,70.11,16.74,55.29,37.21,55.29H74.13c.37.33.76.66,1.16,1l51.27,40.38L168,55.29h36.85C225.31,55.29,242.06,70.11,242.06,88.23Z"/></clipPath></defs><g id="圖層_2" data-name="圖層 2"><g id="圖層_1-2" data-name="圖層 1"><g class="cls-2"><path class="cls-3" d="M242.06,88.23V236.64c0,18.11-16.75,32.94-37.21,32.94H37.21C16.74,269.58,0,254.75,0,236.64V88.23C0,70.11,16.74,55.29,37.21,55.29H74.13c.37.33.76.66,1.16,1l51.27,40.38L168,55.29h36.85C225.31,55.29,242.06,70.11,242.06,88.23Z" transform="translate(49.75)"/><path class="cls-4" d="M176.79,191.11c-8.94-6.62-17.85-13.28-26.82-19.85-5-3.64-9.93-7.26-15-10.67-4.23-2.82-8.71-2.63-13.09-.14-1.25.72-2.49,1.49-3.68,2.3q-8.19,5.56-16.34,11.19a8,8,0,0,1-8.72.54,4.93,4.93,0,0,1-2-7.55,17.31,17.31,0,0,1,2.53-2.82c7-6.55,14-13.12,21-19.59,10.44-9.53,15.38-9.88,27.39-2.27,6.27,4,12.51,8,18.87,11.78,4.76,2.86,9.84,5.08,15.53,5.17,2.25,0,4.5.05,6.75.06a48.85,48.85,0,0,1-.47-6.06c-8.93.16-16.84-2.89-24.32-7.95-6.59-4.45-13.4-8.6-20.31-12.53-7.24-4.12-14.44-3.45-21.1,1.56a107.23,107.23,0,0,0-8.48,7.18c-7.15,6.64-14.41,13.19-21.25,20.16-6.35,6.45-4,16.09,4.32,19.17,4.66,1.71,9.24,1.48,13.48-1.4q7.62-5.17,15.23-10.41c7.73-5.33,8.52-5.42,16,.07q18.48,13.53,36.8,27.31a10,10,0,0,1,2.89,3.5c1.86,3.77-.1,7.33-4.26,7.61a16.67,16.67,0,0,1-6.13-.69c-6.89-2.25-6.86-2.34-8.94,4.58-1.53,5.14-3.62,6.13-8.69,4-2-.83-3.91-1.92-5.95-2.62-3.79-1.3-5.92.17-6.34,4.11a24.4,24.4,0,0,1-.71,4.27c-.94,3.33-3.08,4.57-6.4,3.63-2-.56-3.87-1.5-5.81-2.24-4.52-1.73-6.07-1.09-8.06,3.29-2.5,5.51-5.66,6.72-10.72,3.34-3.88-2.59-7.28-5.91-10.82-9-4.63-4-9-8.39-13.86-12.13-.36-.28-.74-.55-1.13-.81a36.74,36.74,0,0,0-4.35,4.86,16.89,16.89,0,0,1,3.77,2.52c3.79,3.36,7.43,6.88,11.24,10.22s7.34,6.76,11.45,9.49c7.94,5.27,15.76,4,19.93-5.16.06-.15.24-.25.5-.52,13.8,4.93,17.22,3.52,21.33-8.9,4.05,1.72,8.06,3.84,12.69,2.72,5-1.21,6.73-5.31,8.21-9.57a43.14,43.14,0,0,0,5.71,1,23.46,23.46,0,0,0,5.91-.48,10.68,10.68,0,0,0,8.4-10.07C183.24,198.13,180.92,194.16,176.79,191.11Z" transform="translate(49.75)"/><path class="cls-4" d="M109.3,240.11a19,19,0,0,1-10.42-3.55A83.15,83.15,0,0,1,89.56,229c-.8-.72-1.61-1.44-2.41-2.14-2-1.78-4-3.63-6-5.42-1.75-1.61-3.5-3.23-5.28-4.81-1-.85-.85-2.59-2-3.17l-3-1.7.81-1.15a38,38,0,0,1,4.66-5.22l1.54-1.52,1.79,1.21c.44.29.86.59,1.27.9,3.24,2.51,6.29,5.29,9.24,8,1.57,1.43,3.14,2.86,4.74,4.25.84.73,1.67,1.47,2.5,2.22a73.93,73.93,0,0,0,8.05,6.56c1.19.8,2.85,1.68,4,1.37.93-.27,1.93-1.52,2.88-3.6,2.58-5.69,5.56-6.91,11.41-4.67q1,.41,2.07.84a31.45,31.45,0,0,0,3.51,1.33c1.88.53,2.59.13,3.14-1.81a23.52,23.52,0,0,0,.62-3.83c.3-2.83,1.36-4.85,3.15-6s4-1.25,6.68-.34a36.88,36.88,0,0,1,3.82,1.64c.76.35,1.51.71,2.28,1,2.47,1,3.3.85,3.55.74s.87-.65,1.6-3.09c1.2-4,1.86-6.22,3.95-7.31s4.2-.39,8.07.87l.27.09a13.8,13.8,0,0,0,5.13.58,2.67,2.67,0,0,0,2.24-1.13,2.91,2.91,0,0,0-.17-2.68,7.53,7.53,0,0,0-2.1-2.56c-14.34-10.74-26-19.42-36.78-27.29-6.28-4.6-6.28-4.61-12.94,0q-7.6,5.24-15.25,10.42a16.85,16.85,0,0,1-15.88,1.69A14.51,14.51,0,0,1,81.38,173a14.26,14.26,0,0,1,4.06-13.22c5.52-5.62,11.39-11,17.07-16.29l4.27-3.95a110.76,110.76,0,0,1,8.69-7.36c7.62-5.73,15.92-6.34,24-1.74,7.55,4.29,14.24,8.42,20.48,12.64,7.66,5.18,15.12,7.64,22.79,7.5l2.64.28.05,2.3a48.6,48.6,0,0,0,.44,5.73l.45,3h-3.07c-2.26,0-4.52,0-6.79-.05-7-.12-13-3.22-16.84-5.55-5.51-3.3-11-6.8-16.34-10.18l-2.58-1.63c-11.06-7-14.67-6.71-24.19,2-5.81,5.32-11.66,10.8-17.32,16.09L95.47,166a15.65,15.65,0,0,0-2.14,2.38,2.64,2.64,0,0,0-.51,2.1,2.72,2.72,0,0,0,1.48,1.61,5.43,5.43,0,0,0,6-.37q8.18-5.61,16.35-11.2c1.24-.84,2.54-1.65,3.86-2.4,5.48-3.12,11-3,15.87.23s9.82,6.84,15.13,10.73q8.59,6.3,17.13,12.66l9.7,7.2c5.09,3.76,7.55,8.64,7.3,14.5A13.36,13.36,0,0,1,175.18,216a26.7,26.7,0,0,1-6.59.55,23.22,23.22,0,0,1-3.89-.59c-1.38,3.48-3.78,7.74-9.29,9.08-4.43,1.08-8.3-.27-11.75-1.74-1.76,4.63-3.78,8-7.07,9.62-3.76,1.83-8.33,1.06-14.7-1.08-2.2,4-5.26,6.69-8.93,7.74A13.2,13.2,0,0,1,109.3,240.11ZM77.86,211.43a18,18,0,0,1,1.54,1.23c1.81,1.6,3.59,3.25,5.37,4.89s3.89,3.59,5.86,5.32l2.46,2.18a77.49,77.49,0,0,0,8.72,7.1c3.54,2.35,6.89,3.17,9.69,2.36,2.63-.75,4.77-2.91,6.36-6.41a3.25,3.25,0,0,1,.89-1.15l.14-.14,1.19-1.2,1.58.57c6.86,2.45,10.51,3,12.61,2,1.92-.93,3.46-3.61,5.32-9.25l.91-2.73,3.92,1.69c3.47,1.52,6.46,2.83,9.74,2s4.75-3.29,6.34-7.87l.75-2.15,2.23.42c.66.12,1.29.26,1.92.39a20.14,20.14,0,0,0,3.42.57,20.75,20.75,0,0,0,5.25-.43,8.08,8.08,0,0,0,6.31-7.59c.17-4.11-1.47-7.3-5.16-10-3.24-2.39-6.48-4.8-9.71-7.2-5.7-4.22-11.39-8.45-17.1-12.64-5.27-3.86-10-7.32-14.94-10.6-3.22-2.15-6.6-2.16-10.32,0-1.2.68-2.38,1.42-3.5,2.19q-8.19,5.56-16.33,11.18a10.64,10.64,0,0,1-11.42.72,7.56,7.56,0,0,1-3-11.39,20.14,20.14,0,0,1,2.91-3.27l3.71-3.48c5.67-5.31,11.53-10.8,17.37-16.13,11.26-10.29,17.55-10.81,30.59-2.55l2.58,1.64c5.3,3.36,10.77,6.84,16.23,10.11s9.8,4.71,14.21,4.79l3.75,0c0-.26,0-.52-.05-.79-7.88-.38-15.52-3.13-23.27-8.37-6.11-4.14-12.7-8.2-20.12-12.42-6.2-3.52-12.32-3.06-18.2,1.37a106.11,106.11,0,0,0-8.28,7q-2.13,2-4.28,4c-5.63,5.2-11.45,10.58-16.89,16.11a8.72,8.72,0,0,0,3.35,14.83c4.13,1.53,7.76,1.17,11.08-1.09q7.62-5.19,15.22-10.41c8.75-6,10.71-6,19.06.11,10.77,7.89,22.47,16.57,36.83,27.33a12.74,12.74,0,0,1,3.67,4.45,8,8,0,0,1,0,7.65,7.85,7.85,0,0,1-6.47,3.77,19.22,19.22,0,0,1-7.13-.82l-.27-.09a32.13,32.13,0,0,0-3.94-1.13,31.5,31.5,0,0,0-1.37,4.05c-.69,2.31-1.82,5.12-4.4,6.35s-5.55.32-7.83-.62c-.86-.35-1.7-.75-2.53-1.14a29.19,29.19,0,0,0-3.28-1.41c-1.17-.41-1.87-.37-2.12-.21s-.6.8-.73,2.09a28.59,28.59,0,0,1-.79,4.71c-1.35,4.75-5,6.79-9.67,5.46a37.2,37.2,0,0,1-4.13-1.54c-.63-.27-1.26-.54-1.9-.78-3.21-1.23-3.3-1.19-4.71,1.91-1.65,3.65-3.7,5.78-6.24,6.5s-5.22,0-8.36-2.05a80.24,80.24,0,0,1-8.63-7c-.82-.73-1.63-1.46-2.46-2.17-1.63-1.42-3.22-2.88-4.82-4.34-2.64-2.4-5.36-4.88-8.17-7.11C78.28,211,78.06,211.2,77.86,211.43Z" transform="translate(49.75)"/><path class="cls-4" d="M-3.44,217.68c-19.18,0-45.13-13.27-46.31-13.88l5.45-10.58c7.83,4,31,14.11,43.91,12.37,7-.94,13-3.35,19.29-5.9,8.57-3.46,17.44-7.05,29.34-7.08h.09c18.42,0,34.82,15.07,35.57,15.72l-8,8.29c-.15-.13-13.69-12.11-27.57-12.11h-.06c-9.6,0-17,3-24.91,6.22-6.71,2.71-13.64,5.51-22.17,6.66A34.77,34.77,0,0,1-3.44,217.68Z" transform="translate(49.75)"/><path class="cls-4" d="M183.07,161.91h-1.45l.07-11.35c24.77.14,54.79-3.61,60.08-9.39l8.78,8C239.51,161.28,195.2,161.91,183.07,161.91Z" transform="translate(49.75)"/></g><path class="cls-4" d="M181.57,55.27,128.16,107.5l-66.07-51c-.53-.39-1-.8-1.51-1.22Z" transform="translate(49.75)"/><path class="cls-3" d="M183.07,53.8l-1.5,1.47h-121C46.65,43.25,45.8,23.73,59,10.84,72.71-2.5,96.26-3.69,111.64,8.18l10.3,8,5.38-5.27C141-2.48,164.54-3.7,179.93,8.15S196.72,40.44,183.07,53.8Z" transform="translate(49.75)"/></g></g></svg>