<svg width="64" height="66" viewBox="0 0 64 66" fill="none" xmlns="http://www.w3.org/2000/svg">
<path d="M42.625 0.75H7.20833C5.32972 0.75 3.52804 1.50506 2.19966 2.84907C0.871277 4.19308 0.125 6.01595 0.125 7.91667V58.0833C0.125 59.9841 0.871277 61.8069 2.19966 63.1509C3.52804 64.4949 5.32972 65.25 7.20833 65.25H56.7917C58.6703 65.25 60.472 64.4949 61.8003 63.1509C63.1287 61.8069 63.875 59.9841 63.875 58.0833V22.25L42.625 0.75ZM56.7917 58.0833H7.20833V7.91667H39.0833V25.8333H56.7917M49.7083 40.1667H14.2917V33H49.7083M39.0833 50.9167H14.2917V43.75H39.0833" fill="black"/>
</svg>
